<?xml version="1.0" standalone="no"?>
<!DOCTYPE svg PUBLIC "-//W3C//DTD SVG 20010904//EN"
 "http://www.w3.org/TR/2001/REC-SVG-20010904/DTD/svg10.dtd">
<svg version="1.0" xmlns="http://www.w3.org/2000/svg"
 width="500.000000pt" height="500.000000pt" viewBox="0 0 500.000000 500.000000"
 preserveAspectRatio="xMidYMid meet">
<metadata>
Created by potrace 1.14, written by Peter Selinger 2001-2017
</metadata>
<g transform="translate(0.000000,500.000000) scale(0.100000,-0.100000)"
fill="#000000" stroke="none">
<path d="M2826 3823 c-2 -2 -119 -14 -153 -16 -7 0 -13 -3 -13 -7 0 -4 -10 -7
-22 -6 -13 1 -28 -5 -35 -14 -9 -10 -12 -11 -13 -2 0 6 -5 12 -11 12 -5 0 -8
-4 -5 -9 4 -5 -3 -7 -14 -4 -15 4 -20 0 -21 -13 0 -18 -1 -18 -9 1 -5 11 -9
15 -9 8 -1 -7 -7 -10 -15 -7 -8 3 -17 0 -21 -5 -3 -6 -11 -8 -17 -5 -8 5 -9 1
-4 -12 6 -15 5 -17 -5 -6 -18 17 -27 15 -34 -7 -4 -13 -12 -18 -22 -14 -10 4
-14 2 -9 -5 3 -6 2 -13 -4 -17 -5 -3 -10 -1 -10 6 0 7 -3 10 -6 7 -3 -4 -1
-16 5 -27 10 -17 9 -20 -4 -15 -11 5 -14 2 -8 -12 5 -13 3 -16 -10 -11 -12 4
-14 2 -10 -10 5 -13 2 -15 -11 -10 -9 4 -15 3 -11 -2 5 -9 -49 -26 -61 -19 -3
2 -10 -5 -15 -14 -6 -10 -15 -18 -21 -18 -21 0 -88 -52 -81 -63 3 -5 1 -7 -5
-3 -6 3 -18 -2 -28 -11 -10 -10 -20 -17 -23 -16 -11 5 -41 -9 -41 -18 0 -6 -4
-7 -10 -4 -5 3 -10 3 -10 -2 0 -9 -165 -183 -174 -183 -5 0 -29 -21 -81 -71
-12 -10 -25 -19 -29 -19 -5 0 -17 -10 -27 -22 -11 -11 -19 -18 -19 -13 0 4 -9
-3 -21 -16 -11 -13 -17 -18 -14 -11 4 8 -15 -2 -41 -20 -27 -19 -62 -41 -79
-49 -16 -8 -43 -24 -60 -35 -21 -14 -27 -15 -21 -4 4 8 -1 6 -11 -5 -10 -11
-25 -21 -33 -23 -8 -2 -18 -9 -22 -15 -4 -7 -8 -9 -8 -4 0 4 -11 0 -25 -9 -14
-9 -25 -13 -25 -8 0 4 -6 0 -13 -11 -8 -10 -19 -15 -25 -11 -6 4 -9 -3 -8 -17
3 -20 -1 -23 -22 -19 -20 4 -24 2 -19 -11 4 -12 2 -14 -10 -10 -12 5 -14 3 -8
-7 6 -9 4 -11 -4 -6 -7 5 -19 0 -27 -10 -9 -11 -13 -13 -9 -7 4 9 1 11 -9 7
-9 -3 -14 -9 -11 -13 2 -4 -9 -7 -25 -6 -24 1 -28 -1 -19 -12 9 -10 7 -13 -6
-13 -11 0 -15 -5 -11 -16 3 -8 2 -12 -4 -9 -6 3 -10 2 -10 -4 0 -6 -8 -8 -18
-4 -14 5 -14 3 3 -11 20 -17 20 -17 -2 -13 -13 3 -26 0 -30 -5 -4 -7 -1 -8 6
-3 9 5 12 0 10 -16 -2 -13 1 -31 5 -39 7 -12 6 -13 -5 -2 -16 15 -33 16 -23 0
4 -7 3 -8 -4 -4 -7 4 -12 3 -12 -2 0 -12 -100 -10 -119 2 -10 7 -12 6 -6 -4 6
-10 4 -12 -8 -7 -19 7 -30 -16 -14 -32 8 -8 8 -11 0 -11 -12 0 -12 -18 0 -37
5 -7 4 -13 -1 -13 -5 0 -9 -7 -9 -15 0 -8 4 -15 9 -15 5 0 7 -4 4 -9 -9 -13 5
-71 15 -65 5 3 9 -4 9 -15 0 -12 5 -21 12 -21 6 0 9 -3 6 -6 -11 -10 26 -41
42 -36 8 3 12 2 9 -2 -4 -4 9 -22 27 -41 34 -35 51 -45 38 -22 -4 6 3 3 15 -8
16 -14 22 -15 19 -5 -2 8 3 14 10 12 6 -1 12 7 12 19 0 11 4 18 9 14 5 -3 12
-1 16 5 4 6 13 7 23 1 9 -5 22 -10 27 -11 19 -5 40 -13 95 -38 30 -14 57 -26
60 -26 3 -1 16 -11 29 -23 18 -17 25 -35 26 -69 1 -27 8 -50 16 -55 8 -5 11
-9 6 -9 -10 0 19 -57 41 -78 22 -22 66 -27 104 -11 37 15 57 -2 61 -49 1 -18
5 -32 10 -32 4 0 7 -5 7 -10 0 -15 34 -55 74 -88 29 -24 87 -4 131 45 17 18
36 33 43 33 14 0 89 -45 110 -67 7 -7 20 -13 28 -13 8 0 14 -7 14 -15 0 -8 3
-14 8 -14 19 3 33 -2 27 -11 -3 -5 1 -10 9 -10 9 0 16 -5 16 -11 0 -5 5 -7 10
-4 6 3 10 -1 10 -9 0 -9 3 -15 8 -14 4 2 18 -7 32 -19 13 -13 28 -23 32 -23 5
0 6 -4 3 -10 -3 -5 -1 -10 4 -10 18 0 132 -121 124 -132 -3 -6 -1 -8 5 -4 6 3
17 -3 25 -14 7 -11 16 -18 18 -15 9 9 83 -85 84 -108 1 -12 -6 -28 -17 -35
-16 -12 -17 -16 -6 -30 7 -9 8 -13 2 -9 -7 4 -18 -1 -25 -10 -8 -10 -9 -14 -2
-10 6 4 14 3 18 -3 3 -5 0 -10 -7 -10 -8 -1 -7 -5 5 -14 14 -11 15 -15 5 -19
-8 -3 -6 -6 5 -6 10 -1 15 -5 12 -11 -3 -5 -2 -10 4 -10 5 0 8 -9 6 -20 -2
-12 2 -20 10 -20 8 0 19 -16 26 -35 9 -23 16 -31 21 -22 5 8 8 7 8 -5 0 -10 5
-18 11 -18 5 0 7 -6 3 -13 -4 -6 -4 -9 1 -5 4 4 15 2 24 -5 14 -11 14 -10 2 6
-14 18 -2 24 15 7 7 -7 11 -6 11 4 0 8 -5 12 -11 9 -6 -3 -5 0 2 8 11 12 14
12 22 -1 5 -8 6 -18 4 -22 -3 -4 0 -8 6 -8 7 0 9 8 5 21 -5 16 2 13 31 -15 36
-34 42 -36 84 -30 25 4 53 11 63 16 9 5 22 6 27 3 6 -3 10 -1 10 4 0 6 6 11
14 11 7 0 19 7 26 15 7 9 19 14 26 11 8 -3 13 -2 11 2 -1 4 13 23 31 42 54 56
59 64 66 93 4 17 11 25 18 21 6 -4 8 -3 4 4 -3 6 1 17 9 26 9 8 16 18 15 21 0
3 8 13 18 23 16 16 37 19 163 20 79 0 149 1 154 2 6 1 15 2 20 0 23 -4 306 -1
365 5 145 13 162 15 171 21 5 3 9 1 9 -4 0 -10 66 -15 188 -15 45 0 82 -4 82
-9 0 -5 5 -6 10 -3 6 3 10 -1 10 -9 0 -20 45 -64 79 -78 64 -26 222 -12 268
25 37 30 94 92 93 102 -1 3 4 21 11 40 14 37 22 42 78 51 42 7 92 34 85 46 -3
4 0 8 6 8 6 0 9 4 5 9 -3 5 -1 12 5 16 5 3 10 17 10 31 0 13 5 24 11 24 8 0 8
5 -1 15 -10 12 -9 16 4 21 15 6 15 8 -1 20 -16 12 -16 15 -3 24 13 8 13 10 1
10 -12 0 -12 3 -3 12 15 15 15 28 1 28 -5 0 -7 -5 -3 -12 5 -7 3 -8 -5 -3 -9
5 -10 10 -2 18 15 15 14 30 -1 22 -7 -4 -6 -1 3 7 16 13 23 51 7 42 -5 -3 -5
-10 -2 -16 5 -7 2 -8 -5 -4 -9 6 -8 12 4 26 17 19 17 80 0 80 -5 0 -3 5 5 10
13 9 13 10 0 10 -13 0 -13 1 0 10 8 5 10 10 4 10 -6 0 -11 19 -12 43 -1 23 -7
44 -12 45 -6 2 -7 8 -4 13 3 6 0 17 -7 25 -15 18 -21 39 -21 72 0 12 -5 22
-10 22 -6 0 -5 8 3 18 7 9 9 14 5 10 -12 -10 -39 29 -31 42 3 6 -1 10 -9 10
-9 0 -15 3 -15 8 3 19 -2 32 -14 32 -7 0 -18 9 -25 20 -7 11 -18 20 -26 20 -8
0 -16 7 -20 15 -3 8 -12 15 -19 15 -18 0 -35 41 -41 100 -6 56 -13 77 -42 116
-13 17 -20 35 -16 39 4 5 3 6 -3 3 -12 -7 -37 17 -28 26 4 3 2 6 -4 6 -6 0
-37 15 -70 33 -32 18 -65 32 -73 32 -8 0 -18 3 -21 7 -3 5 -20 10 -37 11 -18
1 -32 5 -32 8 0 3 -10 5 -22 6 -89 2 -84 -1 -119 69 -18 36 -32 72 -32 80 0 7
-7 16 -14 18 -8 3 -11 11 -7 17 3 6 2 14 -4 18 -5 3 -12 15 -14 26 -1 11 -5
22 -8 25 -3 3 -16 26 -29 53 -13 26 -28 47 -33 47 -5 0 -7 4 -3 9 3 5 -1 15
-8 23 -7 7 -20 28 -28 46 -7 17 -17 32 -21 32 -5 0 -8 5 -8 10 0 13 -111 180
-135 204 -9 9 -13 16 -9 16 4 0 -4 9 -17 20 -13 11 -29 24 -35 29 -7 5 -15 7
-18 4 -3 -4 -6 -1 -6 6 0 7 -4 9 -10 6 -5 -3 -10 2 -10 12 0 15 -2 16 -10 3
-8 -13 -10 -12 -10 4 0 11 -3 16 -7 13 -9 -10 -34 14 -26 26 3 5 2 8 -3 4 -5
-3 -27 10 -49 29 -63 53 -65 55 -65 48 0 -4 -8 -1 -17 7 -24 20 -62 38 -93 45
-14 3 -34 7 -45 9 -37 8 -232 27 -287 28 -16 0 -28 5 -28 9 0 5 -4 7 -9 4 -4
-3 -17 1 -27 8 -15 11 -22 12 -33 3 -12 -9 -13 -9 -7 1 6 10 -10 12 -79 10
-48 -2 -88 -4 -89 -5z m-284 -2657 c7 4 8 2 4 -5 -9 -13 -26 -5 -25 12 0 9 2
8 6 -1 2 -6 10 -9 15 -6z"/>
<path d="M1015 2700 c-3 -5 -1 -10 4 -10 6 0 11 5 11 10 0 6 -2 10 -4 10 -3 0
-8 -4 -11 -10z"/>
<path d="M2386 1473 c-6 -14 -5 -15 5 -6 7 7 10 15 7 18 -3 3 -9 -2 -12 -12z"/>
<path d="M2390 1450 c-14 -11 -19 -20 -12 -20 7 0 11 -4 8 -8 -2 -4 -1 -14 4
-22 7 -12 12 -12 28 3 19 17 23 58 6 64 -5 1 -20 -6 -34 -17z m35 -8 c-1 -24
-15 -43 -25 -37 -16 10 3 51 26 55 0 0 0 -8 -1 -18z"/>
<path d="M2403 1425 c0 -8 4 -12 9 -9 5 3 6 10 3 15 -9 13 -12 11 -12 -6z"/>
<path d="M2340 1451 c0 -6 4 -13 10 -16 6 -3 7 1 4 9 -7 18 -14 21 -14 7z"/>
</g>
</svg>
